<?xml version="1.0" encoding="UTF-8" standalone="no"?>
<!-- Created with Inkscape (http://www.inkscape.org/) -->

<svg
   version="1.1"
   id="svg55"
   width="1064"
   height="1306.6667"
   viewBox="0 0 1064 1306.6667"
   sodipodi:docname="hoodie.svg"
   inkscape:version="1.1.2 (0a00cf5339, 2022-02-04)"
   xmlns:inkscape="http://www.inkscape.org/namespaces/inkscape"
   xmlns:sodipodi="http://sodipodi.sourceforge.net/DTD/sodipodi-0.dtd"
   xmlns="http://www.w3.org/2000/svg"
   xmlns:svg="http://www.w3.org/2000/svg">
  <defs
     id="defs59" />
  <sodipodi:namedview
     id="namedview57"
     pagecolor="#ffffff"
     bordercolor="#666666"
     borderopacity="1.0"
     inkscape:pageshadow="2"
     inkscape:pageopacity="0.0"
     inkscape:pagecheckerboard="0"
     showgrid="false"
     inkscape:zoom="0.35355339"
     inkscape:cx="1042.2754"
     inkscape:cy="550.12907"
     inkscape:window-width="992"
     inkscape:window-height="1016"
     inkscape:window-x="2221"
     inkscape:window-y="485"
     inkscape:window-maximized="0"
     inkscape:current-layer="g61" />
  <g
     inkscape:groupmode="layer"
     inkscape:label="Image"
     id="g61">
    <path
       style="fill:#010101;stroke:none;stroke-width:1.32766"
       d="m 246.786,737.07551 c 0,123.06657 1.33142,246.2073 1.33142,369.36259 v 87.3761 c 0,26.9343 -1.85209,47.7615 12.58225,71.4895 26.81826,44.0851 77.73188,35.7447 121.89502,35.7447 h 302.24096 c 22.65609,0 52.71774,5.2148 74.56164,-0.6593 18.03727,-4.8519 37.09709,-21.2045 47.00181,-36.4093 8.59456,-13.1951 8.85818,-24.7751 10.63169,-39.7164 3.89184,-32.8057 -1.19831,-66.3622 1.06915,-99.2911 3.26208,-47.3578 1.21297,-95.4649 1.21297,-142.97895 V 733.10386 c 18.88274,18.77528 37.04782,38.16085 55.92124,56.92685 7.43219,7.3899 20.7947,16.50084 24.49482,26.47761 2.52711,6.81798 0.80288,16.63985 0.80288,23.82985 v 51.63132 174.75221 112.5298 c 0,8.9838 -4.30993,33.1128 1.36874,40.242 4.38449,5.5033 25.319,2.1221 31.91771,2.1221 h 94.5335 c 6.7012,0 31.8205,3.65 35.1465,-3.0687 4.3472,-8.7853 0.8029,-26.8999 0.8029,-36.6477 v -88.7 -247.56552 -75.46117 c 0,-10.98158 2.3872,-25.15769 -0.6791,-35.74477 -5.612,-19.38027 -25.7969,-40.15063 -37.0451,-56.92685 L 944.02658,554.38004 c -13.43574,-20.03826 -27.7569,-53.20675 -47.54237,-67.21473 -42.90623,-30.3751 -87.93081,-58.16996 -131.76109,-87.2384 -12.05102,-7.99095 -23.89567,-16.27976 -35.94936,-24.2707 -4.30593,-2.85429 -12.07898,-6.1706 -14.37841,-11.02262 -3.68947,-7.78839 6.5055,-25.0743 9.05258,-32.66543 8.23507,-24.54738 11.98312,-49.61373 11.98312,-75.46116 0,-22.46228 1.26756,-45.42102 -3.54434,-67.5179 C 709.67,86.956331 630.85967,0.99116471 521.06632,3.6652682 427.63658,5.9408489 355.91493,95.779592 336.30655,179.72194 c -6.73985,28.85662 -6.3444,59.25026 -5.61876,88.69998 0.5672,23.02492 5.86241,45.81816 13.29861,67.51788 2.35801,6.88021 11.11633,21.51967 7.71713,28.69379 -2.31674,4.89041 -10.08314,8.11273 -14.37842,11.05704 -11.92453,8.17232 -23.89701,16.24666 -35.94937,24.23628 -43.80499,29.03799 -89.20631,56.58396 -131.76104,87.39595 -19.85339,14.37469 -33.96819,46.81108 -47.54204,67.05718 L 39.522316,677.50089 C 28.27418,694.27711 8.0890455,715.04747 2.4768182,734.42774 -0.58911597,745.01482 1.7977171,759.19093 1.7977171,770.17251 v 75.46117 247.56552 88.7 c 0,9.7478 -3.5443142,27.8624 0.8034013,36.6477 3.3250826,6.7187 28.4452046,3.0687 35.1459386,3.0687 h 94.533523 c 6.59867,0 27.53322,3.3812 31.91775,-2.1221 5.67862,-7.1292 1.36865,-31.2582 1.36865,-40.242 V 1066.7217 886.67397 836.36653 c 0,-6.72135 -1.7309,-16.34198 1.36875,-22.50597 4.5563,-9.06196 15.48355,-15.52117 22.59751,-22.51126 18.76023,-18.43238 38.53772,-35.8189 57.25276,-54.27379 M 523.72923,84.781595 c 41.54948,-5.073904 78.11531,21.021495 100.2974,53.900065 57.89446,85.80993 22.07424,178.02746 -26.53596,258.15663 -14.02158,23.11231 -29.10301,45.54546 -44.85682,67.5179 -3.90916,5.45173 -11.87127,20.90804 -19.58441,20.90804 -7.86094,0 -16.69782,-16.61735 -20.7348,-22.23192 -16.91351,-23.52271 -32.49956,-48.01052 -47.43586,-72.81341 -42.24449,-70.15242 -72.79613,-146.97718 -36.82412,-226.38352 6.48286,-14.31115 14.91099,-27.64924 25.00211,-39.71641 18.35015,-21.94476 42.05809,-35.843128 70.67246,-39.337375 z"
       id="path2619" />
  </g>
</svg>
